<mxfile host="Electron" modified="2023-04-19T02:27:17.647Z" agent="Mozilla/5.0 (Windows NT 10.0; Win64; x64) AppleWebKit/537.36 (KHTML, like Gecko) draw.io/21.1.2 Chrome/106.0.5249.199 Electron/21.4.3 Safari/537.36" etag="biS-Hxxui79307tustPM" version="21.1.2" type="device">
  <diagram name="Page-1" id="-ZEDyg4aVr5IU9MFN35L">
    <mxGraphModel dx="1027" dy="989" grid="1" gridSize="10" guides="1" tooltips="1" connect="1" arrows="1" fold="1" page="1" pageScale="1" pageWidth="850" pageHeight="1100" math="0" shadow="0">
      <root>
        <mxCell id="0" />
        <mxCell id="1" parent="0" />
        <mxCell id="gySkxmkF_8zIahGBaPJ1-2" value="dep Android Application Deployment" style="shape=umlFrame;whiteSpace=wrap;html=1;pointerEvents=0;recursiveResize=0;container=1;collapsible=0;width=235;height=30;" parent="1" vertex="1">
          <mxGeometry x="15" y="320" width="820" height="460" as="geometry" />
        </mxCell>
        <mxCell id="27Yqjq1DhI1VMj9eUo7p-19" style="edgeStyle=orthogonalEdgeStyle;rounded=0;orthogonalLoop=1;jettySize=auto;html=1;exitX=1;exitY=0.5;exitDx=0;exitDy=0;entryX=0;entryY=0.5;entryDx=0;entryDy=0;dashed=1;" edge="1" parent="gySkxmkF_8zIahGBaPJ1-2" source="27Yqjq1DhI1VMj9eUo7p-2" target="27Yqjq1DhI1VMj9eUo7p-9">
          <mxGeometry relative="1" as="geometry" />
        </mxCell>
        <mxCell id="27Yqjq1DhI1VMj9eUo7p-2" value="" style="rounded=0;whiteSpace=wrap;html=1;fillColor=none;" vertex="1" parent="gySkxmkF_8zIahGBaPJ1-2">
          <mxGeometry x="25" y="50" width="305" height="390" as="geometry" />
        </mxCell>
        <mxCell id="27Yqjq1DhI1VMj9eUo7p-3" value="&amp;lt;&amp;lt;Compiled Classes&amp;gt;&amp;gt;" style="rounded=0;whiteSpace=wrap;html=1;fillColor=none;" vertex="1" parent="gySkxmkF_8zIahGBaPJ1-2">
          <mxGeometry x="95" y="90" width="165" height="70" as="geometry" />
        </mxCell>
        <mxCell id="TjqlhgzEWJu6o2C6fwtA-3" value="&lt;font style=&quot;font-size: 10px;&quot;&gt;&amp;lt;&amp;lt;Android Application&amp;gt;&amp;gt;&lt;br&gt;Uber App&lt;br&gt;&lt;/font&gt;" style="text;html=1;align=center;verticalAlign=middle;resizable=0;points=[];autosize=1;strokeColor=none;fillColor=none;" parent="gySkxmkF_8zIahGBaPJ1-2" vertex="1">
          <mxGeometry x="112.5" y="50" width="130" height="40" as="geometry" />
        </mxCell>
        <mxCell id="27Yqjq1DhI1VMj9eUo7p-6" value="&amp;lt;&amp;lt;Compiled Resources&amp;gt;&amp;gt;" style="rounded=0;whiteSpace=wrap;html=1;fillColor=none;" vertex="1" parent="gySkxmkF_8zIahGBaPJ1-2">
          <mxGeometry x="95" y="180" width="165" height="70" as="geometry" />
        </mxCell>
        <mxCell id="27Yqjq1DhI1VMj9eUo7p-7" value="&amp;lt;&amp;lt;Uccompiled Resources&amp;gt;&amp;gt;" style="rounded=0;whiteSpace=wrap;html=1;fillColor=none;" vertex="1" parent="gySkxmkF_8zIahGBaPJ1-2">
          <mxGeometry x="95" y="270" width="165" height="70" as="geometry" />
        </mxCell>
        <mxCell id="27Yqjq1DhI1VMj9eUo7p-8" value="&amp;lt;&amp;lt;Deployment Specification&amp;gt;&amp;gt;" style="rounded=0;whiteSpace=wrap;html=1;fillColor=none;" vertex="1" parent="gySkxmkF_8zIahGBaPJ1-2">
          <mxGeometry x="95" y="360" width="165" height="70" as="geometry" />
        </mxCell>
        <mxCell id="27Yqjq1DhI1VMj9eUo7p-22" style="edgeStyle=orthogonalEdgeStyle;rounded=0;orthogonalLoop=1;jettySize=auto;html=1;exitX=0.5;exitY=0;exitDx=0;exitDy=0;entryX=0.5;entryY=1;entryDx=0;entryDy=0;endArrow=none;endFill=0;" edge="1" parent="gySkxmkF_8zIahGBaPJ1-2" source="27Yqjq1DhI1VMj9eUo7p-9" target="27Yqjq1DhI1VMj9eUo7p-21">
          <mxGeometry relative="1" as="geometry" />
        </mxCell>
        <mxCell id="27Yqjq1DhI1VMj9eUo7p-9" value="&amp;lt;&amp;lt;Uccompiled Resources&amp;gt;&amp;gt;" style="rounded=0;whiteSpace=wrap;html=1;fillColor=none;" vertex="1" parent="gySkxmkF_8zIahGBaPJ1-2">
          <mxGeometry x="425" y="210" width="165" height="70" as="geometry" />
        </mxCell>
        <mxCell id="27Yqjq1DhI1VMj9eUo7p-18" value="&amp;lt;&amp;lt;Uccompiled Resources&amp;gt;&amp;gt;" style="rounded=0;whiteSpace=wrap;html=1;fillColor=none;" vertex="1" parent="gySkxmkF_8zIahGBaPJ1-2">
          <mxGeometry x="425" y="50" width="165" height="70" as="geometry" />
        </mxCell>
        <mxCell id="27Yqjq1DhI1VMj9eUo7p-20" value="&lt;font style=&quot;font-size: 10px;&quot;&gt;&amp;lt;&amp;lt;deploy&amp;gt;&amp;gt;&lt;br&gt;&lt;/font&gt;" style="text;html=1;align=center;verticalAlign=middle;resizable=0;points=[];autosize=1;strokeColor=none;fillColor=none;" vertex="1" parent="gySkxmkF_8zIahGBaPJ1-2">
          <mxGeometry x="330" y="220" width="80" height="30" as="geometry" />
        </mxCell>
        <mxCell id="27Yqjq1DhI1VMj9eUo7p-21" value="" style="rhombus;fillColor=#000000;" vertex="1" parent="gySkxmkF_8zIahGBaPJ1-2">
          <mxGeometry x="492.5" y="120" width="30" height="30" as="geometry" />
        </mxCell>
        <mxCell id="27Yqjq1DhI1VMj9eUo7p-24" style="edgeStyle=orthogonalEdgeStyle;rounded=0;orthogonalLoop=1;jettySize=auto;html=1;exitX=0.625;exitY=0.2;exitDx=0;exitDy=0;exitPerimeter=0;entryX=1;entryY=0.5;entryDx=0;entryDy=0;" edge="1" parent="gySkxmkF_8zIahGBaPJ1-2" source="27Yqjq1DhI1VMj9eUo7p-23" target="27Yqjq1DhI1VMj9eUo7p-18">
          <mxGeometry relative="1" as="geometry">
            <Array as="points">
              <mxPoint x="730" y="85" />
            </Array>
          </mxGeometry>
        </mxCell>
        <mxCell id="27Yqjq1DhI1VMj9eUo7p-23" value="API" style="ellipse;shape=cloud;whiteSpace=wrap;html=1;" vertex="1" parent="gySkxmkF_8zIahGBaPJ1-2">
          <mxGeometry x="655" y="310" width="120" height="80" as="geometry" />
        </mxCell>
      </root>
    </mxGraphModel>
  </diagram>
</mxfile>
